<svg version="1.1" viewBox="0.0 0.0 64.0 64.0" fill="none" stroke="none" stroke-linecap="square" stroke-miterlimit="10" xmlns:xlink="http://www.w3.org/1999/xlink" xmlns="http://www.w3.org/2000/svg"><clipPath id="p.0"><path d="m0 0l64.0 0l0 64.0l-64.0 0l0 -64.0z" clip-rule="nonzero"/></clipPath><g clip-path="url(#p.0)"><path fill="#000000" fill-opacity="0.0" d="m0 0l64.0 0l0 64.0l-64.0 0z" fill-rule="evenodd"/><path class="adjustment-background" fill="var(--secondary-light-2)" d="m0.026662992 32.004227l0 0c0 -17.671658 14.327192 -31.997368 32.00068 -31.997368l0 0c8.487106 0 16.626606 3.3711414 22.6279 9.371812c6.0012894 6.0006704 9.37278 14.139325 9.37278 22.625557l0 0c0 17.671658 -14.32719 31.997368 -32.00068 31.997368l0 0c-17.673489 0 -32.00068 -14.32571 -32.00068 -31.997368z" fill-rule="evenodd"/><path class="adjustment-symbol" fill="var(--secondary)" d="m7.390445 32.010376l0 0c0 -2.1170216 1.7161851 -3.8332062 3.8332057 -3.8332062l41.58957 0c1.0166321 0 1.9916229 0.40385437 2.7104874 1.1227188c0.71886444 0.71886635 1.1227188 1.6938572 1.1227188 2.7104874l0 0l0 0c0 2.1170197 -1.7161827 3.8332062 -3.8332062 3.8332062l-41.58957 0c-2.1170206 0 -3.8332057 -1.7161865 -3.8332057 -3.8332062z" fill-rule="evenodd"/></g></svg>