<svg version="1.1" viewBox="0.0 0.0 64.0 64.0" fill="none" stroke="none" stroke-linecap="square" stroke-miterlimit="10" xmlns:xlink="http://www.w3.org/1999/xlink" xmlns="http://www.w3.org/2000/svg"><clipPath id="p.0"><path d="m0 0l64.0 0l0 64.0l-64.0 0l0 -64.0z" clip-rule="nonzero"/></clipPath><g clip-path="url(#p.0)"><path fill="#000000" fill-opacity="0.0" d="m0 0l64.0 0l0 64.0l-64.0 0z" fill-rule="evenodd"/><path fill="var(--red)" d="m10.058278 10.047257l0 0c1.8873358 -1.8873348 4.9473104 -1.8873348 6.8346453 0l37.039368 37.03937c0.9063301 0.9063301 1.4155045 2.1355782 1.4155045 3.417324c0 1.2817421 -0.50917435 2.5109901 -1.4155045 3.4173203l0 0l0 0c-1.8873329 1.8873367 -4.9473076 1.8873367 -6.8346443 0l-37.03937 -37.039368c-1.8873348 -1.8873348 -1.8873348 -4.9473095 0 -6.8346453z" fill-rule="evenodd"/><path fill="var(--red)" d="m10.066649 53.95346l0 0c-1.8873358 -1.8873367 -1.8873358 -4.9473114 0 -6.834648l37.039368 -37.039368c0.9063301 -0.90633106 2.1355782 -1.4155016 3.417324 -1.4155016c1.2817459 0 2.510994 0.50917053 3.417324 1.4155016l0 0l0 0c1.8873329 1.8873348 1.8873329 4.9473104 0 6.8346453l-37.03937 37.03937c-1.8873348 1.8873329 -4.9473104 1.8873329 -6.8346453 0z" fill-rule="evenodd"/></g></svg>