<svg version="1.1" viewBox="0.0 0.0 64.0 64.0" fill="none" stroke="none" stroke-linecap="square" stroke-miterlimit="10" xmlns:xlink="http://www.w3.org/1999/xlink" xmlns="http://www.w3.org/2000/svg"><clipPath id="p.0"><path d="m0 0l64.0 0l0 64.0l-64.0 0l0 -64.0z" clip-rule="nonzero"/></clipPath><g clip-path="url(#p.0)"><path fill="#000000" fill-opacity="0.0" d="m0 0l64.0 0l0 64.0l-64.0 0z" fill-rule="evenodd"/><path fill="var(--secondary)" d="m47.36213 15.083598l3.7165337 2.2362204l-22.299213 35.2126l-3.7165337 -2.2362213z" fill-rule="evenodd"/><path fill="var(--secondary)" d="m27.269117 54.262615l-14.377953 8.944881l1.8740158 -16.88189z" fill-rule="evenodd"/><path fill="var(--secondary)" d="m48.01874 1.2384944l5.771206 3.6597872l0 0c0.9471092 0.6006079 1.6148529 1.5515871 1.8563309 2.643733c0.24147797 1.0921464 0.036907196 2.2359967 -0.5687065 3.1799169l-2.2834625 3.5590553c-3.8146973E-5 5.9127808E-5 -1.18255615E-4 7.6293945E-5 -1.7547607E-4 3.8146973E-5l-12.913212 -8.189014l0 0c-5.722046E-5 -3.7670135E-5 -7.6293945E-5 -1.1634827E-4 -3.8146973E-5 -1.7547607E-4l2.2835045 -3.5588796l0 0c1.2611198 -1.9656119 3.8822937 -2.5451617 5.854553 -1.2944605z" fill-rule="evenodd"/><path fill="var(--secondary)" d="m38.000366 9.153141l7.370079 4.629921l-22.299212 35.212597l-7.370079 -4.629921z" fill-rule="evenodd"/></g></svg>