<svg version="1.1" viewBox="0.0 0.0 64.0 64.0" fill="none" stroke="none" stroke-linecap="square" stroke-miterlimit="10" xmlns:xlink="http://www.w3.org/1999/xlink" xmlns="http://www.w3.org/2000/svg"><clipPath id="p.0"><path d="m0 0l64.0 0l0 64.0l-64.0 0l0 -64.0z" clip-rule="nonzero"/></clipPath><g clip-path="url(#p.0)"><path fill="#000000" fill-opacity="0.0" d="m0 0l64.0 0l0 64.0l-64.0 0z" fill-rule="evenodd"/><path fill="#000000" fill-opacity="0.0" d="m43.312847 49.20218l7.2216606 -12.521072l0.26586914 -0.8060417l0.07975769 -1.1085167l-0.35726166 -1.189949l-0.6330986 -0.6730881l-0.91226196 -0.43542862l-1.0302429 -0.23765564l-0.91059875 0l-0.9504814 0.2775421l-0.91226196 0.55508804l-3.366562 5.3880196l0 -22.893257l-0.2376213 -1.0702906l-0.67464066 -0.87252045l-0.8707237 -0.5933132l-1.1498795 -0.3174305l-1.1083412 0.07977295l-0.9504814 0.43542862l-0.6347618 0.555089l-0.5550003 0.75286007l-0.27750015 0.9905176l0 14.704865l0 -18.256435l-0.1578598 -0.79274654l-0.4752426 -0.8725195l-0.8723793 -0.75286007l-0.91060257 -0.43542862l-1.030241 -0.039886475l-1.1083393 0.23765755l-0.9521427 0.5949755l-0.6331005 0.87085724l-0.35726166 0.87252045l0 18.578854l-0.023262024 -15.725298l-1.0202713 -1.406003l-0.83084106 -0.555089l-0.7926216 -0.19777107l-1.030241 -0.039886475l-1.030241 0.23765755l-0.9571285 0.61325645l-0.6347599 0.91074467l-0.3173809 0.9905176l0 15.240009l0 -9.861965l-0.5533409 -1.1882877l-0.75274086 -0.6747494l-1.3476219 -0.5933132l-1.3077412 0.038225174l-0.83250237 0.27754402l-1.0684605 0.832634l-0.3572607 0.87251854l-0.27750015 0.9107456l0 21.309422l0.39714146 3.1693268l0.91060066 2.1405792l1.3476219 2.1389198l2.3762016 2.1239624l2.6154842 1.4259453l3.6041832 0.97722244l2.495844 0.07977295l3.1306057 -0.23765564l3.5061417 -0.9007721l3.6340942 -1.4375801l2.3762016 -1.3860626z" fill-rule="evenodd"/><path stroke="var(--white)" stroke-width="2.0" stroke-linejoin="round" stroke-linecap="butt" d="m43.312847 49.20218l7.2216606 -12.521072l0.26586914 -0.8060417l0.07975769 -1.1085167l-0.35726166 -1.189949l-0.6330986 -0.6730881l-0.91226196 -0.43542862l-1.0302429 -0.23765564l-0.91059875 0l-0.9504814 0.2775421l-0.91226196 0.55508804l-3.366562 5.3880196l0 -22.893257l-0.2376213 -1.0702906l-0.67464066 -0.87252045l-0.8707237 -0.5933132l-1.1498795 -0.3174305l-1.1083412 0.07977295l-0.9504814 0.43542862l-0.6347618 0.555089l-0.5550003 0.75286007l-0.27750015 0.9905176l0 14.704865l0 -18.256435l-0.1578598 -0.79274654l-0.4752426 -0.8725195l-0.8723793 -0.75286007l-0.91060257 -0.43542862l-1.030241 -0.039886475l-1.1083393 0.23765755l-0.9521427 0.5949755l-0.6331005 0.87085724l-0.35726166 0.87252045l0 18.578854l-0.023262024 -15.725298l-1.0202713 -1.406003l-0.83084106 -0.555089l-0.7926216 -0.19777107l-1.030241 -0.039886475l-1.030241 0.23765755l-0.9571285 0.61325645l-0.6347599 0.91074467l-0.3173809 0.9905176l0 15.240009l0 -9.861965l-0.5533409 -1.1882877l-0.75274086 -0.6747494l-1.3476219 -0.5933132l-1.3077412 0.038225174l-0.83250237 0.27754402l-1.0684605 0.832634l-0.3572607 0.87251854l-0.27750015 0.9107456l0 21.309422l0.39714146 3.1693268l0.91060066 2.1405792l1.3476219 2.1389198l2.3762016 2.1239624l2.6154842 1.4259453l3.6041832 0.97722244l2.495844 0.07977295l3.1306057 -0.23765564l3.5061417 -0.9007721l3.6340942 -1.4375801l2.3762016 -1.3860626z" fill-rule="evenodd"/></g></svg>