<svg version="1.1" viewBox="0.0 0.0 64.0 64.0" fill="none" stroke="none" stroke-linecap="square" stroke-miterlimit="10" xmlns:xlink="http://www.w3.org/1999/xlink" xmlns="http://www.w3.org/2000/svg"><clipPath id="p.0"><path d="m0 0l64.0 0l0 64.0l-64.0 0l0 -64.0z" clip-rule="nonzero"/></clipPath><g clip-path="url(#p.0)"><path fill="#000000" fill-opacity="0.0" d="m0 0l64.0 0l0 64.0l-64.0 0z" fill-rule="evenodd"/><path fill="var(--white)" d="m8.986722 13.980619l0 0c0 -1.6365023 1.3266468 -2.96315 2.963149 -2.96315l40.10129 0c0.7858772 0 1.539566 0.31218815 2.0952644 0.86788654c0.5556984 0.5556984 0.8678856 1.3093872 0.8678856 2.0952635l0 0l0 0c0 1.6365023 -1.3266487 2.96315 -2.96315 2.96315l-40.10129 0l0 0c-1.6365023 0 -2.963149 -1.3266478 -2.963149 -2.96315z" fill-rule="evenodd"/><path fill="#000000" fill-opacity="0.0" d="m12.750806 15.482157c0.6864433 1.5617905 2.851287 6.018221 4.118655 9.370741c1.2673683 3.352522 2.4292202 7.4836426 3.4855556 10.744381c1.0563374 3.2607422 2.1660175 5.926441 2.852459 8.820065c0.6864433 2.8936195 1.0551643 7.1180496 1.2661972 8.54166" fill-rule="evenodd"/><path stroke="var(--white)" stroke-width="2.0" stroke-linejoin="round" stroke-linecap="round" d="m12.750806 15.482157c0.6864433 1.5617905 2.851287 6.018221 4.118655 9.370741c1.2673683 3.352522 2.4292202 7.4836426 3.4855556 10.744381c1.0563374 3.2607422 2.1660175 5.926441 2.852459 8.820065c0.6864433 2.8936195 1.0551643 7.1180496 1.2661972 8.54166" fill-rule="evenodd"/><path fill="#000000" fill-opacity="0.0" d="m51.248158 15.482157c-0.6864433 1.5617905 -2.8512878 6.018221 -4.118656 9.370741c-1.2673683 3.352522 -2.4292183 7.4836426 -3.4855576 10.744381c-1.0563354 3.2607422 -2.1660156 5.926441 -2.8524551 8.820065c-0.6864433 2.8936195 -1.0551643 7.1180496 -1.2661972 8.54166" fill-rule="evenodd"/><path stroke="var(--white)" stroke-width="2.0" stroke-linejoin="round" stroke-linecap="round" d="m51.248158 15.482157c-0.6864433 1.5617905 -2.8512878 6.018221 -4.118656 9.370741c-1.2673683 3.352522 -2.4292183 7.4836426 -3.4855576 10.744381c-1.0563354 3.2607422 -2.1660156 5.926441 -2.8524551 8.820065c-0.6864433 2.8936195 -1.0551643 7.1180496 -1.2661972 8.54166" fill-rule="evenodd"/><path fill="#000000" fill-opacity="0.0" d="m13.172872 15.931879l18.693981 36.647766l19.007011 -36.647766" fill-rule="evenodd"/><path stroke="var(--white)" stroke-width="2.0" stroke-linejoin="round" stroke-linecap="round" d="m13.172872 15.931879l18.693981 36.647766l19.007011 -36.647766" fill-rule="evenodd"/><path fill="#000000" fill-opacity="0.0" d="m24.368156 52.959003l17.171028 -36.968998l-19.42908 0l17.336336 36.993473" fill-rule="evenodd"/><path stroke="var(--white)" stroke-width="2.0" stroke-linejoin="round" stroke-linecap="round" d="m24.368156 52.959003l17.171028 -36.968998l-19.42908 0l17.336336 36.993473" fill-rule="evenodd"/><path fill="#000000" fill-opacity="0.0" d="m19.510887 32.28402l12.39817 -16.31849l12.559963 16.755978" fill-rule="evenodd"/><path stroke="var(--white)" stroke-width="2.0" stroke-linejoin="round" stroke-linecap="round" d="m19.510887 32.28402l12.39817 -16.31849l12.559963 16.755978" fill-rule="evenodd"/><path fill="#000000" fill-opacity="0.0" d="m22.191002 41.171387l9.587919 -15.284433l0 -9.765396l0 9.765396l9.798952 15.978903" fill-rule="evenodd"/><path stroke="var(--white)" stroke-width="2.0" stroke-linejoin="round" stroke-linecap="round" d="m22.191002 41.171387l9.587919 -15.284433l0 -9.765396l0 9.765396l9.798952 15.978903" fill-rule="evenodd"/></g></svg>