<svg version="1.1" viewBox="0.0 0.0 64.0 64.0" fill="none" stroke="none" stroke-linecap="square" stroke-miterlimit="10" xmlns:xlink="http://www.w3.org/1999/xlink" xmlns="http://www.w3.org/2000/svg"><clipPath id="p.0"><path d="m0 0l64.0 0l0 64.0l-64.0 0l0 -64.0z" clip-rule="nonzero"/></clipPath><g clip-path="url(#p.0)"><path fill="#000000" fill-opacity="0.0" d="m0 0l64.0 0l0 64.0l-64.0 0z" fill-rule="evenodd"/><path fill="#000000" fill-opacity="0.0" d="m8.014646 23.901426l29.81015 0l2.4614868 0.30784988l2.6456985 0.98405457l2.3386803 1.7839317l1.35355 1.4769726l1.7842636 2.9530525l0.49212265 2.3382416l0 3.0553741l-0.43071747 2.275959l-1.4149551 3.0696106l-1.969368 2.1531754l-2.3377876 1.5383644l-3.077301 0.9226608l-2.8922043 0.18506622l-2.8913116 -0.43063354l-2.585184 -1.1077309l-1.9684772 -1.5997543l-1.9622478 -2.5838127l-1.7228622 -2.5224152l-2.0921745 -2.2768517l-2.585184 -1.8453255l-3.015009 -1.2919044l-3.5347166 -1.018753l-3.630826 -0.61481285l-2.1535778 -0.123672485l-0.6300554 0.013345718z" fill-rule="evenodd"/><path stroke="var(--white)" stroke-width="2.0" stroke-linejoin="round" stroke-linecap="butt" d="m8.014646 23.901426l29.81015 0l2.4614868 0.30784988l2.6456985 0.98405457l2.3386803 1.7839317l1.35355 1.4769726l1.7842636 2.9530525l0.49212265 2.3382416l0 3.0553741l-0.43071747 2.275959l-1.4149551 3.0696106l-1.969368 2.1531754l-2.3377876 1.5383644l-3.077301 0.9226608l-2.8922043 0.18506622l-2.8913116 -0.43063354l-2.585184 -1.1077309l-1.9684772 -1.5997543l-1.9622478 -2.5838127l-1.7228622 -2.5224152l-2.0921745 -2.2768517l-2.585184 -1.8453255l-3.015009 -1.2919044l-3.5347166 -1.018753l-3.630826 -0.61481285l-2.1535778 -0.123672485l-0.6300554 0.013345718z" fill-rule="evenodd"/><path fill="#000000" fill-opacity="0.0" d="m47.015774 42.151913l5.2006226 -5.3695908l0.81248856 -1.6246681l0.6772194 -2.2118988l0.31591797 -2.2688427l-0.0898819 -2.166521l-0.54195404 -1.940527l-0.94864273 -1.9414158l-1.5867043 -2.2421494l-1.7602386 -1.5339146l-1.8510094 -1.0383301l-2.6190033 -0.8132229l-2.0316582 -0.27048302l-27.48927 0l-7.059643 5.1640625" fill-rule="evenodd"/><path stroke="var(--white)" stroke-width="2.0" stroke-linejoin="round" stroke-linecap="butt" d="m47.015774 42.151913l5.2006226 -5.3695908l0.81248856 -1.6246681l0.6772194 -2.2118988l0.31591797 -2.2688427l-0.0898819 -2.166521l-0.54195404 -1.940527l-0.94864273 -1.9414158l-1.5867043 -2.2421494l-1.7602386 -1.5339146l-1.8510094 -1.0383301l-2.6190033 -0.8132229l-2.0316582 -0.27048302l-27.48927 0l-7.059643 5.1640625" fill-rule="evenodd"/><path fill="#000000" fill-opacity="0.0" d="m30.966217 35.427864l0 0c0 -3.6343117 2.946743 -6.5805016 6.58173 -6.5805016l0 0c1.7455826 0 3.419674 0.69330025 4.653988 1.9273834c1.234314 1.2340851 1.927742 2.9078598 1.927742 4.653118l0 0c0 3.6343079 -2.9467392 6.5804977 -6.58173 6.5804977l0 0c-3.6349869 0 -6.58173 -2.9461899 -6.58173 -6.5804977z" fill-rule="evenodd"/><path stroke="var(--white)" stroke-width="2.0" stroke-linejoin="round" stroke-linecap="butt" d="m30.966217 35.427864l0 0c0 -3.6343117 2.946743 -6.5805016 6.58173 -6.5805016l0 0c1.7455826 0 3.419674 0.69330025 4.653988 1.9273834c1.234314 1.2340851 1.927742 2.9078598 1.927742 4.653118l0 0c0 3.6343079 -2.9467392 6.5804977 -6.58173 6.5804977l0 0c-3.6349869 0 -6.58173 -2.9461899 -6.58173 -6.5804977z" fill-rule="evenodd"/><path fill="#000000" fill-opacity="0.0" d="m22.449715 23.820446l4.780592 -5.116295" fill-rule="evenodd"/><path stroke="var(--white)" stroke-width="2.0" stroke-linejoin="round" stroke-linecap="butt" d="m22.449715 23.820446l4.780592 -5.116295" fill-rule="evenodd"/></g></svg>