<svg version="1.1" viewBox="0.0 0.0 64.0 64.0" fill="none" stroke="none" stroke-linecap="square" stroke-miterlimit="10" xmlns:xlink="http://www.w3.org/1999/xlink" xmlns="http://www.w3.org/2000/svg"><clipPath id="p.0"><path d="m0 0l64.0 0l0 64.0l-64.0 0l0 -64.0z" clip-rule="nonzero"/></clipPath><g clip-path="url(#p.0)"><path fill="#000000" fill-opacity="0.0" d="m0 0l64.0 0l0 64.0l-64.0 0z" fill-rule="evenodd"/><path fill="#000000" fill-opacity="0.0" d="m44.027687 14.814448l0 0c7.5347977 5.2733946 10.755825 14.839936 7.9449387 23.596691c-2.8108902 8.756756 -10.998077 14.661301 -20.194403 14.564064l0.22177696 -20.975204z" fill-rule="evenodd"/><path fill="#000000" fill-opacity="0.0" d="m44.027687 14.814448l0 0c7.5347977 5.2733946 10.755825 14.839936 7.9449387 23.596691c-2.8108902 8.756756 -10.998077 14.661301 -20.194403 14.564064" fill-rule="evenodd"/><path stroke="var(--white)" stroke-width="2.0" stroke-linejoin="round" stroke-linecap="round" d="m44.027687 14.814448l0 0c7.5347977 5.2733946 10.755825 14.839936 7.9449387 23.596691c-2.8108902 8.756756 -10.998077 14.661301 -20.194403 14.564064" fill-rule="evenodd"/><path fill="#000000" fill-opacity="0.0" d="m44.162964 20.047485l-0.3959961 -5.5870476l5.403782 -0.3830042" fill-rule="evenodd"/><path stroke="var(--white)" stroke-width="2.0" stroke-linejoin="round" stroke-linecap="round" d="m44.162964 20.047485l-0.3959961 -5.5870476l5.403782 -0.3830042" fill-rule="evenodd"/><path fill="#000000" fill-opacity="0.0" d="m19.972313 49.18555l0 0c-7.5347977 -5.2733917 -10.755824 -14.839935 -7.9449368 -23.596691c2.8108864 -8.756756 10.9980755 -14.661301 20.194403 -14.564065l-0.22177887 20.975204z" fill-rule="evenodd"/><path fill="#000000" fill-opacity="0.0" d="m19.972313 49.18555l0 0c-7.5347977 -5.2733917 -10.755824 -14.839935 -7.9449368 -23.596691c2.8108864 -8.756756 10.9980755 -14.661301 20.194403 -14.564065" fill-rule="evenodd"/><path stroke="var(--white)" stroke-width="2.0" stroke-linejoin="round" stroke-linecap="round" d="m19.972313 49.18555l0 0c-7.5347977 -5.2733917 -10.755824 -14.839935 -7.9449368 -23.596691c2.8108864 -8.756756 10.9980755 -14.661301 20.194403 -14.564065" fill-rule="evenodd"/><path fill="#000000" fill-opacity="0.0" d="m19.837036 43.952515l0.3959942 5.5870476l-5.403779 0.38300323" fill-rule="evenodd"/><path stroke="var(--white)" stroke-width="2.0" stroke-linejoin="round" stroke-linecap="round" d="m19.837036 43.952515l0.3959942 5.5870476l-5.403779 0.38300323" fill-rule="evenodd"/><path fill="var(--white)" d="m18.065222 32.000263l0 0c0 -7.697016 6.238846 -13.93668 13.934851 -13.93668l0 0c3.6957512 0 7.240135 1.4683247 9.853428 4.081959c2.6132927 2.613634 4.081421 6.1584835 4.081421 9.854721l0 0c0 7.6970177 -6.238842 13.93668 -13.934849 13.93668l0 0c-7.696005 0 -13.934851 -6.239662 -13.934851 -13.93668z" fill-rule="evenodd"/><path fill="#000000" fill-opacity="0.0" d="m32.000072 18.063583l0 27.874016" fill-rule="evenodd"/><path stroke="var(--secondary-medium)" stroke-width="2.0" stroke-linejoin="round" stroke-linecap="butt" d="m32.000072 18.063583l0 27.874016" fill-rule="evenodd"/><path fill="#000000" fill-opacity="0.0" d="m18.065222 32.000263l27.874018 0" fill-rule="evenodd"/><path stroke="var(--secondary-medium)" stroke-width="2.0" stroke-linejoin="round" stroke-linecap="butt" d="m18.065222 32.000263l27.874018 0" fill-rule="evenodd"/><path fill="#000000" fill-opacity="0.0" d="m22.061024 22.091965l0 0c2.9394398 2.4422092 4.642746 6.0637894 4.649454 9.885689c0.006706238 3.8218994 -1.683878 7.449436 -4.614727 9.901951l-8.264797 -9.879341z" fill-rule="evenodd"/><path fill="#000000" fill-opacity="0.0" d="m22.061024 22.091965l0 0c2.9394398 2.4422092 4.642746 6.0637894 4.649454 9.885689c0.006706238 3.8218994 -1.683878 7.449436 -4.614727 9.901951" fill-rule="evenodd"/><path stroke="var(--secondary-medium)" stroke-width="2.0" stroke-linejoin="round" stroke-linecap="butt" d="m22.061024 22.091965l0 0c2.9394398 2.4422092 4.642746 6.0637894 4.649454 9.885689c0.006706238 3.8218994 -1.683878 7.449436 -4.614727 9.901951" fill-rule="evenodd"/><path fill="#000000" fill-opacity="0.0" d="m41.94007 22.091965l0 0c-2.9394379 2.4422092 -4.642746 6.0637894 -4.649452 9.885689c-0.006706238 3.8218994 1.683876 7.449436 4.614727 9.901951l8.264797 -9.879341z" fill-rule="evenodd"/><path fill="#000000" fill-opacity="0.0" d="m41.94007 22.091965l0 0c-2.9394379 2.4422092 -4.642746 6.0637894 -4.649452 9.885689c-0.006706238 3.8218994 1.683876 7.449436 4.614727 9.901951" fill-rule="evenodd"/><path stroke="var(--secondary-medium)" stroke-width="2.0" stroke-linejoin="round" stroke-linecap="butt" d="m41.94007 22.091965l0 0c-2.9394379 2.4422092 -4.642746 6.0637894 -4.649452 9.885689c-0.006706238 3.8218994 1.683876 7.449436 4.614727 9.901951" fill-rule="evenodd"/></g></svg>