<svg version="1.1" viewBox="0.0 0.0 64.0 64.0" fill="none" stroke="none" stroke-linecap="square" stroke-miterlimit="10" xmlns:xlink="http://www.w3.org/1999/xlink" xmlns="http://www.w3.org/2000/svg"><clipPath id="p.0"><path d="m0 0l64.0 0l0 64.0l-64.0 0l0 -64.0z" clip-rule="nonzero"/></clipPath><g clip-path="url(#p.0)"><path fill="#000000" fill-opacity="0.0" d="m0 0l64.0 0l0 64.0l-64.0 0z" fill-rule="evenodd"/><path fill="var(--white)" d="m8.9840975 51.45264l0 0c0 -1.635109 1.3255186 -2.9606285 2.9606295 -2.9606285l40.09449 0c0.78520966 0 1.5382576 0.31192398 2.093483 0.86714935c0.5552254 0.5552254 0.86714554 1.3082733 0.86714554 2.0934792l0 0l0 0c0 1.6351128 -1.3255157 2.9606323 -2.9606285 2.9606323l-40.09449 0l0 0c-1.6351109 0 -2.9606295 -1.3255196 -2.9606295 -2.9606323z" fill-rule="evenodd"/><path fill="#000000" fill-opacity="0.0" d="m12.761157 37.621944l8.087516 8.087517l15.0352 -15.032412" fill-rule="evenodd"/><path stroke="var(--white)" stroke-width="2.0" stroke-linejoin="round" stroke-linecap="round" d="m12.761157 37.621944l8.087516 8.087517l15.0352 -15.032412" fill-rule="evenodd"/><path fill="var(--white)" d="m33.66933 18.830494l0 0c0 -5.8243046 4.7207146 -10.5458355 10.544006 -10.5458355l0 0c2.796444 0 5.4783554 1.1110754 7.455738 3.0888033c1.9773865 1.9777279 3.0882683 4.660102 3.0882683 7.457032l0 0c0 5.8243046 -4.7207108 10.545837 -10.544006 10.545837l0 0c-5.823292 0 -10.544006 -4.721533 -10.544006 -10.545837z" fill-rule="evenodd"/><path fill="#000000" fill-opacity="0.0" d="m44.213337 8.284658l0 21.102362" fill-rule="evenodd"/><path stroke="var(--purple-medium)" stroke-width="1.3674540682414698" stroke-linejoin="round" stroke-linecap="butt" d="m44.213337 8.284658l0 21.102362" fill-rule="evenodd"/><path fill="#000000" fill-opacity="0.0" d="m33.66933 18.830494l21.102364 0" fill-rule="evenodd"/><path stroke="var(--purple-medium)" stroke-width="1.3674540682414698" stroke-linejoin="round" stroke-linecap="butt" d="m33.66933 18.830494l21.102364 0" fill-rule="evenodd"/><path fill="#000000" fill-opacity="0.0" d="m36.692966 11.33305l0 0c2.2240753 1.848012 3.512848 4.5883884 3.5179214 7.480335c0.005077362 2.8919468 -1.2740669 5.6368313 -3.491642 7.4926414l-6.2538357 -7.4755325z" fill-rule="evenodd"/><path fill="#000000" fill-opacity="0.0" d="m36.692966 11.33305l0 0c2.2240753 1.848012 3.512848 4.5883884 3.5179214 7.480335c0.005077362 2.8919468 -1.2740669 5.6368313 -3.491642 7.4926414" fill-rule="evenodd"/><path stroke="var(--purple-medium)" stroke-width="1.3674540682414698" stroke-linejoin="round" stroke-linecap="butt" d="m36.692966 11.33305l0 0c2.2240753 1.848012 3.512848 4.5883884 3.5179214 7.480335c0.005077362 2.8919468 -1.2740669 5.6368313 -3.491642 7.4926414" fill-rule="evenodd"/><path fill="#000000" fill-opacity="0.0" d="m51.73443 11.33305l0 0c-2.2240791 1.848012 -3.512848 4.5883884 -3.5179214 7.480335c-0.005077362 2.8919468 1.2740669 5.6368313 3.491642 7.4926414l6.253834 -7.4755325z" fill-rule="evenodd"/><path fill="#000000" fill-opacity="0.0" d="m51.73443 11.33305l0 0c-2.2240791 1.848012 -3.512848 4.5883884 -3.5179214 7.480335c-0.005077362 2.8919468 1.2740669 5.6368313 3.491642 7.4926414" fill-rule="evenodd"/><path stroke="var(--purple-medium)" stroke-width="1.3674540682414698" stroke-linejoin="round" stroke-linecap="butt" d="m51.73443 11.33305l0 0c-2.2240791 1.848012 -3.512848 4.5883884 -3.5179214 7.480335c-0.005077362 2.8919468 1.2740669 5.6368313 3.491642 7.4926414" fill-rule="evenodd"/></g></svg>