<svg version="1.1" viewBox="0.0 0.0 64.0 64.0" fill="none" stroke="none" stroke-linecap="square" stroke-miterlimit="10" xmlns:xlink="http://www.w3.org/1999/xlink" xmlns="http://www.w3.org/2000/svg"><clipPath id="p.0"><path d="m0 0l64.0 0l0 64.0l-64.0 0l0 -64.0z" clip-rule="nonzero"/></clipPath><g clip-path="url(#p.0)"><path fill="#000000" fill-opacity="0.0" d="m0 0l64.0 0l0 64.0l-64.0 0z" fill-rule="evenodd"/><path fill="#000000" fill-opacity="0.0" d="m14.418516 17.142237l0 11.394621l0.27927494 3.3975239l0.7217493 4.094637l1.1810799 4.101528l1.8419151 3.0330772l2.3146553 2.737545l3.6370945 2.8987083l7.6051846 4.8671646l9.163612 -5.9003944l1.9840431 -1.6047821l1.6530495 -1.8880653l1.8526459 -2.7272034l1.3699417 -3.1624718l0.99183273 -3.886383l0.3781128 -3.0682983l0.18886566 -4.4874115l0 -9.860281l-17.477135 -5.097624z" fill-rule="evenodd"/><path stroke="var(--white)" stroke-width="2.0" stroke-linejoin="round" stroke-linecap="butt" d="m14.418516 17.142237l0 11.394621l0.27927494 3.3975239l0.7217493 4.094637l1.1810799 4.101528l1.8419151 3.0330772l2.3146553 2.737545l3.6370945 2.8987083l7.6051846 4.8671646l9.163612 -5.9003944l1.9840431 -1.6047821l1.6530495 -1.8880653l1.8526459 -2.7272034l1.3699417 -3.1624718l0.99183273 -3.886383l0.3781128 -3.0682983l0.18886566 -4.4874115l0 -9.860281l-17.477135 -5.097624z" fill-rule="evenodd"/><path fill="var(--white)" d="m32.047745 48.9654l0 -32.87309l-13.530882 3.9476337l0 5.3920116l0.21644783 4.3717995l0.46047974 4.1911087l0.8665581 3.5181084l1.0561905 2.2207375l1.868351 2.430519l2.0311642 1.8941917l3.1409893 2.3593178z" fill-rule="evenodd"/></g></svg>