<svg version="1.1" viewBox="0.0 0.0 64.0 64.0" fill="none" stroke="none" stroke-linecap="square" stroke-miterlimit="10" xmlns:xlink="http://www.w3.org/1999/xlink" xmlns="http://www.w3.org/2000/svg"><clipPath id="p.0"><path d="m0 0l64.0 0l0 64.0l-64.0 0l0 -64.0z" clip-rule="nonzero"/></clipPath><g clip-path="url(#p.0)"><path fill="#000000" fill-opacity="0.0" d="m0 0l64.0 0l0 64.0l-64.0 0z" fill-rule="evenodd"/><path fill="#000000" fill-opacity="0.0" d="m9.733529 39.246994l5.2525015 -7.2217484l0.3881445 -0.3525753l0.6056404 -0.32354355l0.7614298 -0.09736633l0.5390129 0.18817902l0.47502518 0.40544128l0.39304543 0.521719l0.22883797 0.5139122l0.08220291 0.6061554l-0.084056854 0.6543236l-2.195156 3.2537842l12.921745 -5.7522373l0.6638241 -0.13482094l0.6620197 0.16151237l0.5537014 0.34232903l0.46813774 0.5691948l0.23350334 0.6455536l-0.0069122314 0.64582443l-0.15379333 0.49771118l-0.28546715 0.5023918l-0.48934555 0.40549088l-8.299934 3.6947975l10.304565 -4.5871773l0.48712158 -0.11009598l0.6119118 0.0489769l0.64417267 0.30317688l0.47460556 0.40450287l0.28141785 0.57141113l0.14438629 0.68522644l-0.09654999 0.6868515l-0.33243942 0.57611465l-0.40270233 0.42085648l-10.486546 4.668186l8.881748 -3.9380608l1.0499954 0.22252655l0.52210236 0.3294258l0.31081772 0.3976364l0.28141785 0.57141113l0.124759674 0.6411476l-0.10561371 0.69425964l-0.35453796 0.5870743l-0.47932434 0.4279976l-8.60199 3.829258l5.566435 -2.477951l0.80976677 0.013713837l0.57001877 0.25527954l0.67354584 0.6114731l0.30706406 0.74765015l0.052555084 0.53957367l-0.20145798 0.8122101l-0.40269852 0.4208603l-0.44432068 0.38544846l-12.027777 5.3542786l-1.8886795 0.5722008l-1.4370537 0.023937225l-1.5459423 -0.22311783l-1.7959852 -0.80737305l-1.4621325 -1.1178017l-1.4573202 -1.7885361l-0.67224026 -1.3885269l-0.65258884 -1.826519l-0.37267685 -2.205082l-0.10184002 -2.4121666l0.18519402 -1.6893158z" fill-rule="evenodd"/><path stroke="var(--white)" stroke-width="2.0" stroke-linejoin="round" stroke-linecap="butt" d="m9.733529 39.246994l5.2525015 -7.2217484l0.3881445 -0.3525753l0.6056404 -0.32354355l0.7614298 -0.09736633l0.5390129 0.18817902l0.47502518 0.40544128l0.39304543 0.521719l0.22883797 0.5139122l0.08220291 0.6061554l-0.084056854 0.6543236l-2.195156 3.2537842l12.921745 -5.7522373l0.6638241 -0.13482094l0.6620197 0.16151237l0.5537014 0.34232903l0.46813774 0.5691948l0.23350334 0.6455536l-0.0069122314 0.64582443l-0.15379333 0.49771118l-0.28546715 0.5023918l-0.48934555 0.40549088l-8.299934 3.6947975l10.304565 -4.5871773l0.48712158 -0.11009598l0.6119118 0.0489769l0.64417267 0.30317688l0.47460556 0.40450287l0.28141785 0.57141113l0.14438629 0.68522644l-0.09654999 0.6868515l-0.33243942 0.57611465l-0.40270233 0.42085648l-10.486546 4.668186l8.881748 -3.9380608l1.0499954 0.22252655l0.52210236 0.3294258l0.31081772 0.3976364l0.28141785 0.57141113l0.124759674 0.6411476l-0.10561371 0.69425964l-0.35453796 0.5870743l-0.47932434 0.4279976l-8.60199 3.829258l5.566435 -2.477951l0.80976677 0.013713837l0.57001877 0.25527954l0.67354584 0.6114731l0.30706406 0.74765015l0.052555084 0.53957367l-0.20145798 0.8122101l-0.40269852 0.4208603l-0.44432068 0.38544846l-12.027777 5.3542786l-1.8886795 0.5722008l-1.4370537 0.023937225l-1.5459423 -0.22311783l-1.7959852 -0.80737305l-1.4621325 -1.1178017l-1.4573202 -1.7885361l-0.67224026 -1.3885269l-0.65258884 -1.826519l-0.37267685 -2.205082l-0.10184002 -2.4121666l0.18519402 -1.6893158z" fill-rule="evenodd"/><path fill="var(--white)" d="m24.185644 25.162992l0 0c0 -7.697016 6.238846 -13.93668 13.934851 -13.93668l0 0c3.6957512 0 7.240135 1.4683247 9.853428 4.081959c2.6132927 2.613634 4.0814247 6.1584835 4.0814247 9.854721l0 0c0 7.697016 -6.238846 13.936682 -13.934853 13.936682l0 0c-7.696005 0 -13.934851 -6.239666 -13.934851 -13.936682z" fill-rule="evenodd"/><path fill="#000000" fill-opacity="0.0" d="m38.120495 11.226313l0 27.874014" fill-rule="evenodd"/><path stroke="var(--gray-medium)" stroke-width="2.0" stroke-linejoin="round" stroke-linecap="butt" d="m38.120495 11.226313l0 27.874014" fill-rule="evenodd"/><path fill="#000000" fill-opacity="0.0" d="m24.185644 25.162992l27.874018 0" fill-rule="evenodd"/><path stroke="var(--gray-medium)" stroke-width="2.0" stroke-linejoin="round" stroke-linecap="butt" d="m24.185644 25.162992l27.874018 0" fill-rule="evenodd"/><path fill="#000000" fill-opacity="0.0" d="m28.181446 15.254695l0 0c2.9394398 2.4422102 4.642746 6.0637884 4.649452 9.885688c0.0067100525 3.8218994 -1.683876 7.449438 -4.614725 9.901953l-8.264797 -9.879343z" fill-rule="evenodd"/><path fill="#000000" fill-opacity="0.0" d="m28.181446 15.254695l0 0c2.9394398 2.4422102 4.642746 6.0637884 4.649452 9.885688c0.0067100525 3.8218994 -1.683876 7.449438 -4.614725 9.901953" fill-rule="evenodd"/><path stroke="var(--gray-medium)" stroke-width="2.0" stroke-linejoin="round" stroke-linecap="butt" d="m28.181446 15.254695l0 0c2.9394398 2.4422102 4.642746 6.0637884 4.649452 9.885688c0.0067100525 3.8218994 -1.683876 7.449438 -4.614725 9.901953" fill-rule="evenodd"/><path fill="#000000" fill-opacity="0.0" d="m48.060493 15.254695l0 0c-2.9394379 2.4422102 -4.642746 6.0637884 -4.649452 9.885688c-0.006706238 3.8218994 1.683876 7.449438 4.614727 9.901953l8.264797 -9.879343z" fill-rule="evenodd"/><path fill="#000000" fill-opacity="0.0" d="m48.060493 15.254695l0 0c-2.9394379 2.4422102 -4.642746 6.0637884 -4.649452 9.885688c-0.006706238 3.8218994 1.683876 7.449438 4.614727 9.901953" fill-rule="evenodd"/><path stroke="var(--gray-medium)" stroke-width="2.0" stroke-linejoin="round" stroke-linecap="butt" d="m48.060493 15.254695l0 0c-2.9394379 2.4422102 -4.642746 6.0637884 -4.649452 9.885688c-0.006706238 3.8218994 1.683876 7.449438 4.614727 9.901953" fill-rule="evenodd"/></g></svg>